<svg width="258" height="248" viewBox="0 0 258 248" fill="none" xmlns="http://www.w3.org/2000/svg">
<g opacity="0.58">
<path d="M302.983 42.9521V-14.5643L253.161 -43.0886L203.572 -14.5643V42.9521L253.161 71.4765L302.983 42.9521Z" fill="white" fill-opacity="0.5"/>
<path d="M201.221 42.3015V-15.2149L151.399 -43.7393L101.811 -15.2149V42.3015L151.399 70.8258L201.221 42.3015Z" fill="white" fill-opacity="0.5"/>
</g>
<g opacity="0.41">
<path d="M150.241 131.097V73.5807L100.419 44.8225L50.8301 73.5807V131.097L100.419 159.621L150.241 131.097Z" fill="white" fill-opacity="0.5"/>
</g>
<g opacity="0.5">
<path d="M251.991 131.097V73.5807L202.402 44.8225L152.58 73.5807V131.097L202.402 159.621L251.991 131.097Z" fill="white" fill-opacity="0.5"/>
</g>
<g opacity="0.6">
<path d="M353.741 131.097V73.5807L304.152 44.8225L254.33 73.5807V131.097L304.152 159.621L353.741 131.097Z" fill="white" fill-opacity="0.5"/>
</g>
<g opacity="0.31">
<path d="M201.233 219.008V161.726L151.411 132.968L101.822 161.726V219.008L151.411 247.766L201.233 219.008Z" fill="white" fill-opacity="0.5"/>
</g>
<g opacity="0.25">
<path d="M302.983 219.008V161.726L253.161 132.968L203.572 161.726V219.008L253.161 247.766L302.983 219.008Z" fill="white" fill-opacity="0.5"/>
<path d="M99.5144 43.2112V-14.0713L49.692 -42.8295L0.103516 -14.0713V43.2112L49.692 71.9694L99.5144 43.2112Z" fill="white" fill-opacity="0.5"/>
</g>
</svg>
