<svg width="295" height="219" viewBox="0 0 295 219" fill="none" xmlns="http://www.w3.org/2000/svg">
<g opacity="0.58">
<path d="M-8.17751 205.681L-8.17751 263.197L41.6449 291.721L91.2334 263.197L91.2334 205.681L41.6449 177.156L-8.17751 205.681Z" fill="white" fill-opacity="0.5"/>
<path d="M93.5842 206.331L93.5842 263.848L143.407 292.372L192.995 263.848L192.995 206.331L143.407 177.807L93.5842 206.331Z" fill="white" fill-opacity="0.5"/>
</g>
<g opacity="0.41">
<path d="M144.565 117.536L144.565 175.052L194.387 203.81L243.976 175.052L243.976 117.536L194.387 89.0112L144.565 117.536Z" fill="white" fill-opacity="0.5"/>
</g>
<g opacity="0.5">
<path d="M42.8147 117.536L42.8147 175.052L92.4032 203.81L142.226 175.052L142.226 117.536L92.4032 89.0112L42.8147 117.536Z" fill="white" fill-opacity="0.5"/>
</g>
<g opacity="0.6">
<path d="M-58.9353 117.536L-58.9353 175.052L-9.34683 203.81L40.4756 175.052L40.4756 117.536L-9.34682 89.0112L-58.9353 117.536Z" fill="white" fill-opacity="0.5"/>
</g>
<g opacity="0.31">
<path d="M93.5725 29.6244L93.5725 86.907L143.395 115.665L192.983 86.907L192.983 29.6245L143.395 0.866291L93.5725 29.6244Z" fill="white" fill-opacity="0.5"/>
</g>
<g opacity="0.25">
<path d="M-8.17751 29.6244L-8.17751 86.907L41.6449 115.665L91.2334 86.907L91.2334 29.6245L41.6449 0.866291L-8.17751 29.6244Z" fill="white" fill-opacity="0.5"/>
<path d="M195.291 205.421L195.291 262.704L245.114 291.462L294.702 262.704L294.702 205.421L245.114 176.663L195.291 205.421Z" fill="white" fill-opacity="0.5"/>
</g>
</svg>
