<svg width="24" height="22" viewBox="0 0 24 22" fill="none" xmlns="http://www.w3.org/2000/svg">
<path d="M16.5443 2.1602C17.7731 2.16373 18.9506 2.63502 19.8195 3.47114C20.6884 4.30726 21.1781 5.44026 21.1818 6.6227V15.5467C21.1781 16.7292 20.6884 17.8622 19.8195 18.6983C18.9506 19.5344 17.7731 20.0057 16.5443 20.0092H7.27045C6.04165 20.0057 4.86423 19.5344 3.99533 18.6983C3.12644 17.8622 2.63667 16.7292 2.633 15.5467V6.6227C2.63667 5.44026 3.12644 4.30726 3.99533 3.47114C4.86423 2.63502 6.04165 2.16373 7.27045 2.1602H16.5443ZM16.5443 0.375488H7.27045C3.6997 0.375488 0.77832 3.18666 0.77832 6.6227V15.5467C0.77832 18.9828 3.6997 21.794 7.27045 21.794H16.5443C20.1151 21.794 23.0365 18.9828 23.0365 15.5467V6.6227C23.0365 3.18666 20.1151 0.375488 16.5443 0.375488Z" fill="#0152A8"/>
<path d="M17.9354 6.62311C17.6603 6.62311 17.3913 6.5446 17.1625 6.39751C16.9338 6.25041 16.7555 6.04134 16.6502 5.79674C16.5449 5.55213 16.5173 5.28297 16.571 5.0233C16.6247 4.76362 16.7572 4.5251 16.9517 4.33788C17.1463 4.15067 17.3941 4.02318 17.664 3.97152C17.9339 3.91987 18.2136 3.94638 18.4678 4.0477C18.722 4.14902 18.9392 4.3206 19.0921 4.54074C19.2449 4.76088 19.3265 5.0197 19.3265 5.28446C19.3269 5.46036 19.2912 5.6346 19.2214 5.79718C19.1517 5.95977 19.0492 6.10749 18.92 6.23187C18.7907 6.35625 18.6372 6.45484 18.4682 6.52198C18.2993 6.58912 18.1182 6.62349 17.9354 6.62311ZM11.9073 7.51523C12.6411 7.51523 13.3583 7.7246 13.9684 8.11687C14.5785 8.50913 15.054 9.06668 15.3348 9.71899C15.6156 10.3713 15.689 11.0891 15.5459 11.7816C15.4027 12.4741 15.0494 13.1102 14.5306 13.6094C14.0117 14.1087 13.3507 14.4487 12.6311 14.5864C11.9114 14.7242 11.1655 14.6535 10.4876 14.3833C9.80973 14.1131 9.23033 13.6555 8.82268 13.0685C8.41504 12.4814 8.19746 11.7912 8.19746 11.0851C8.19851 10.1386 8.58971 9.23122 9.28521 8.56195C9.98072 7.89268 10.9237 7.51624 11.9073 7.51523ZM11.9073 5.73051C10.8068 5.73051 9.73091 6.04456 8.81582 6.63293C7.90074 7.2213 7.18752 8.05758 6.76635 9.03601C6.34518 10.0144 6.23499 11.0911 6.4497 12.1298C6.66441 13.1685 7.19438 14.1226 7.97259 14.8714C8.75081 15.6203 9.74231 16.1303 10.8217 16.3369C11.9011 16.5435 13.02 16.4374 14.0368 16.0322C15.0536 15.6269 15.9226 14.9406 16.5341 14.06C17.1455 13.1794 17.4719 12.1442 17.4719 11.0851C17.4719 9.665 16.8856 8.30303 15.842 7.29885C14.7985 6.29466 13.3831 5.73051 11.9073 5.73051Z" fill="#0152A8"/>
</svg>
