<svg width="23" height="22" viewBox="0 0 23 22" fill="none" xmlns="http://www.w3.org/2000/svg">
<path d="M16.4789 1.78496C17.7077 1.78849 18.8851 2.25978 19.754 3.09589C20.6229 3.93201 21.1127 5.06502 21.1164 6.24746V15.1715C21.1127 16.3539 20.6229 17.4869 19.754 18.3231C18.8851 19.1592 17.7077 19.6305 16.4789 19.634H7.20502C5.97622 19.6305 4.7988 19.1592 3.9299 18.3231C3.06101 17.4869 2.57124 16.3539 2.56757 15.1715V6.24746C2.57124 5.06502 3.06101 3.93201 3.9299 3.09589C4.7988 2.25978 5.97622 1.78849 7.20502 1.78496H16.4789ZM16.4789 0.000244141H7.20502C3.63427 0.000244141 0.712891 2.81142 0.712891 6.24746V15.1715C0.712891 18.6075 3.63427 21.4187 7.20502 21.4187H16.4789C20.0497 21.4187 22.971 18.6075 22.971 15.1715V6.24746C22.971 2.81142 20.0497 0.000244141 16.4789 0.000244141Z" fill="white"/>
<path d="M17.87 6.24787C17.5948 6.24787 17.3259 6.16936 17.0971 6.02226C16.8683 5.87517 16.69 5.6661 16.5847 5.42149C16.4794 5.17689 16.4519 4.90773 16.5056 4.64805C16.5592 4.38838 16.6917 4.14985 16.8863 3.96264C17.0808 3.77543 17.3287 3.64793 17.5986 3.59628C17.8684 3.54463 18.1481 3.57114 18.4023 3.67246C18.6565 3.77378 18.8738 3.94535 19.0267 4.1655C19.1795 4.38564 19.2611 4.64445 19.2611 4.90921C19.2615 5.08511 19.2258 5.25936 19.156 5.42194C19.0862 5.58452 18.9838 5.73225 18.8545 5.85663C18.7253 5.98101 18.5718 6.0796 18.4028 6.14674C18.2338 6.21388 18.0528 6.24824 17.87 6.24787ZM11.8419 7.13998C12.5756 7.13998 13.2929 7.34936 13.903 7.74162C14.5131 8.13389 14.9886 8.69143 15.2693 9.34375C15.5501 9.99606 15.6236 10.7138 15.4805 11.4063C15.3373 12.0988 14.984 12.7349 14.4652 13.2342C13.9463 13.7335 13.2853 14.0735 12.5656 14.2112C11.846 14.3489 11.1001 14.2782 10.4222 14.0081C9.7443 13.7379 9.1649 13.2803 8.75725 12.6932C8.34961 12.1062 8.13203 11.416 8.13203 10.7099C8.13308 9.7634 8.52428 8.85597 9.21978 8.1867C9.91529 7.51744 10.8583 7.141 11.8419 7.13998ZM11.8419 5.35527C10.7413 5.35527 9.66548 5.66931 8.75039 6.25769C7.83531 6.84606 7.12209 7.68234 6.70092 8.66077C6.27975 9.63919 6.16956 10.7158 6.38427 11.7545C6.59898 12.7932 7.12895 13.7473 7.90716 14.4962C8.68538 15.245 9.67688 15.755 10.7563 15.9616C11.8357 16.1682 12.9546 16.0622 13.9713 15.6569C14.9881 15.2516 15.8572 14.5653 16.4686 13.6848C17.0801 12.8042 17.4064 11.7689 17.4064 10.7099C17.4064 9.28976 16.8202 7.92779 15.7766 6.9236C14.7331 5.91942 13.3177 5.35527 11.8419 5.35527Z" fill="white"/>
</svg>
