<svg width="23" height="18" viewBox="0 0 23 18" fill="none" xmlns="http://www.w3.org/2000/svg">
<path d="M22.1312 2.40932C21.3258 2.75903 20.4736 2.98942 19.6017 3.09322C20.5181 2.557 21.2072 1.70511 21.5399 0.697331C20.6735 1.20359 19.7272 1.55881 18.7415 1.74777C18.3264 1.31308 17.8272 0.967273 17.2743 0.731368C16.7213 0.495463 16.1261 0.374385 15.5248 0.375496C13.0906 0.375496 11.1206 2.31545 11.1206 4.70687C11.1189 5.03951 11.157 5.37115 11.2342 5.69473C9.48865 5.61295 7.77939 5.16798 6.21579 4.38828C4.65218 3.60857 3.26866 2.5113 2.15374 1.16668C1.76259 1.8256 1.55574 2.57741 1.55478 3.34354C1.55478 4.84544 2.33892 6.17301 3.52296 6.95078C2.82145 6.93414 2.13432 6.7486 1.51989 6.40992V6.46355C1.51989 8.56443 3.04076 10.3122 5.05367 10.71C4.67515 10.8108 4.28508 10.8619 3.89334 10.862C3.61537 10.8625 3.33803 10.8355 3.06536 10.7815C3.62495 12.5024 5.25362 13.754 7.18289 13.7898C5.61522 14.9971 3.69054 15.6496 1.71134 15.6448C1.36003 15.6443 1.00905 15.6234 0.660156 15.5822C2.6736 16.867 5.01406 17.5466 7.40296 17.5401C15.5154 17.5401 19.9474 10.938 19.9474 5.21197C19.9474 5.02423 19.9425 4.8365 19.9336 4.65323C20.7938 4.04177 21.538 3.2819 22.1312 2.40932Z" fill="#0152A8"/>
</svg>
