<svg width="46" height="41" viewBox="0 0 46 41" fill="none" xmlns="http://www.w3.org/2000/svg">
<path d="M22.7568 39.292C22.7568 39.292 1 27.1082 1 12.3136C1 9.69815 1.90616 7.16351 3.56431 5.1409C5.22245 3.11829 7.53015 1.73264 10.0948 1.21972C12.6594 0.706794 15.3225 1.09827 17.6311 2.32755C19.9396 3.55683 21.7509 5.54797 22.7568 7.9622C23.7628 5.54797 25.5741 3.55683 27.8826 2.32755C30.1911 1.09827 32.8542 0.706794 35.4189 1.21972C37.9835 1.73264 40.2912 3.11829 41.9493 5.1409C43.6075 7.16351 44.5137 9.69815 44.5137 12.3136C44.5137 27.1082 22.7568 39.292 22.7568 39.292Z" fill="#0FE3AF" stroke="#0152A8" stroke-width="2" stroke-linecap="round" stroke-linejoin="round"/>
<path d="M1.87305 20.3594H10.5872L14.0729 15.1309L21.0443 25.5879L24.5299 20.3594H29.7585" stroke="#0152A8" stroke-width="2" stroke-linecap="round" stroke-linejoin="round"/>
</svg>
