<svg width="32" height="40" viewBox="0 0 32 40" fill="none" xmlns="http://www.w3.org/2000/svg">
<path d="M28.3278 17.2905L28.3278 17.2905C30.2262 13.5143 30.412 9.352 30.2378 6.71095L30.2368 6.69707L30.2363 6.68316C30.212 6.04364 30.0206 5.28056 29.7287 4.5554C29.4351 3.82602 29.0746 3.22148 28.7747 2.87778L28.7735 2.87642C28.4663 2.52315 27.9955 2.14885 27.4687 1.84006C26.9485 1.53511 26.4487 1.338 26.0882 1.26986C25.193 1.16368 23.1811 1.16406 21.7647 1.38942L21.7518 1.39147L21.7389 1.39318L16.2529 2.11988L16.1215 2.13728L15.9901 2.11987L10.5075 1.39317L10.4976 1.39187L10.4879 1.39038C9.00926 1.16452 7.05958 1.16328 6.09959 1.26976C5.76894 1.33799 5.28677 1.53294 4.77437 1.83731C4.25185 2.1477 3.78055 2.52293 3.4742 2.87661L3.47106 2.88023L3.47105 2.88022C3.17048 3.2239 2.80972 3.82883 2.50729 4.5636C2.20972 5.28654 2.00171 6.05516 1.94903 6.70851C1.8303 9.3674 2.02011 13.5275 3.85881 17.3011L3.85903 17.3015L3.85905 17.3016L3.86086 17.3053L3.86601 17.316L3.88203 17.3499C3.89516 17.378 3.91308 17.4172 3.9351 17.467C3.97913 17.5668 4.03959 17.7095 4.1109 17.8927C4.25347 18.2591 4.43969 18.7884 4.62468 19.4614C4.9945 20.8066 5.36079 22.731 5.36079 25.0779C5.36079 25.9526 5.28657 27.0585 5.20627 28.2308L5.19735 28.3608C5.11848 29.5112 5.03408 30.7423 4.99663 31.9656C4.95774 33.2366 4.97065 34.4718 5.08817 35.5674C5.20679 36.6734 5.42503 37.5637 5.75104 38.1912M28.3278 17.2905L5.75326 38.1955C5.75252 38.1941 5.75178 38.1927 5.75104 38.1912M28.3278 17.2905L28.324 17.2982L29.2213 17.7396C28.324 17.2982 28.3238 17.2985 28.3237 17.2988L28.3234 17.2994L28.3226 17.3009L28.3208 17.3047L28.3156 17.3154L28.2996 17.3493C28.2865 17.3774 28.2685 17.4165 28.2465 17.4664C28.2024 17.5661 28.1418 17.7088 28.0704 17.892C27.9276 18.2583 27.7412 18.7875 27.556 19.4604C27.1857 20.8056 26.8189 22.7301 26.8189 25.0779C26.8189 25.5368 26.8247 26.0491 26.8309 26.6006C26.8479 28.1061 26.8681 29.9041 26.7833 31.7063C26.6663 34.1917 26.3534 36.4586 25.6724 37.8282C25.6723 37.8278 25.6705 37.8295 25.6667 37.833C25.6372 37.8604 25.4865 38.0006 25.0386 38.1415C24.5683 38.2896 23.9544 38.3784 23.3228 38.3852C22.6878 38.392 22.1032 38.3151 21.6831 38.1785C21.3608 38.0737 21.2583 37.9779 21.2356 37.9564C20.8882 36.7275 20.6281 35.0098 20.3932 33.0604C20.288 32.1881 20.185 31.2403 20.0808 30.2829C19.9576 29.1502 19.833 28.004 19.7017 26.9532C19.4544 24.9743 19.1571 23.0846 18.722 21.6789C18.5062 20.9819 18.2335 20.3244 17.8629 19.8246C17.4886 19.3197 16.9139 18.8533 16.1201 18.8615C15.3449 18.8532 14.7542 19.291 14.3453 19.7717C13.9334 20.2559 13.5991 20.9008 13.3164 21.5982C12.7475 23.0016 12.2815 24.8895 11.8726 26.8748C11.5573 28.4052 11.2675 30.0377 10.9897 31.6026C10.9055 32.077 10.8224 32.5453 10.74 33.0026C10.3852 34.9713 10.0465 36.7223 9.68657 37.9817C9.67834 37.991 9.59775 38.1157 9.24402 38.265C8.86827 38.4237 8.34859 38.5354 7.78521 38.5685C7.22284 38.6015 6.68428 38.5521 6.27678 38.4386C5.89492 38.3323 5.77518 38.2141 5.75426 38.1934C5.75101 38.1902 5.75014 38.1894 5.75104 38.1912M28.3278 17.2905L5.75104 38.1912" fill="#0FE3AF" stroke="#0152A8" stroke-width="2"/>
</svg>
