<svg width="55" height="55" viewBox="0 0 55 55" fill="none" xmlns="http://www.w3.org/2000/svg">
<path d="M32.903 6.84156C28.3475 6.62003 25.8378 10.7565 25.1523 12.8524L25.4687 35.5509C25.3105 38.899 26.6392 45.4133 33.2194 44.6857C39.7996 43.9581 41.0756 38.2927 40.891 35.5509C41.8006 35.3532 46.2691 33.1783 47.0995 26.693C47.7639 21.5048 43.2373 18.5732 40.891 17.756V16.9651V14.3156C40.891 11.0334 38.5975 7.11847 32.903 6.84156Z" fill="#0FE3AF"/>
<path d="M25.1113 35.1251V16.2393" stroke="#0152A8" stroke-width="2" stroke-linecap="round" stroke-linejoin="round"/>
<path d="M17.2431 28.8301C18.7995 28.8301 20.3209 29.2916 21.615 30.1563C22.909 31.0209 23.9177 32.2499 24.5132 33.6878C25.1088 35.1257 25.2647 36.7079 24.961 38.2344C24.6574 39.7608 23.908 41.163 22.8074 42.2635C21.7069 43.364 20.3048 44.1135 18.7783 44.4171C17.2519 44.7207 15.6696 44.5649 14.2318 43.9693C12.7939 43.3737 11.5649 42.3651 10.7002 41.071C9.83554 39.777 9.37402 38.2556 9.37402 36.6992V35.3811" stroke="#0152A8" stroke-width="2" stroke-linecap="round" stroke-linejoin="round"/>
<path d="M32.9804 28.8301C31.4241 28.8301 29.9027 29.2916 28.6086 30.1563C27.3145 31.0209 26.3059 32.2499 25.7103 33.6878C25.1147 35.1257 24.9589 36.7079 25.2625 38.2344C25.5662 39.7608 26.3156 41.163 27.4161 42.2635C28.5167 43.364 29.9188 44.1135 31.4453 44.4171C32.9717 44.7207 34.5539 44.5649 35.9918 43.9693C37.4297 43.3737 38.6587 42.3651 39.5234 41.071C40.388 39.777 40.8496 38.2556 40.8496 36.6992V35.3811" stroke="#0152A8" stroke-width="2" stroke-linecap="round" stroke-linejoin="round"/>
<path d="M14.0949 35.9116H12.521C10.289 35.9176 8.12701 35.1327 6.41862 33.6963C4.71022 32.2599 3.56588 30.2647 3.18862 28.0648C2.81135 25.8649 3.22556 23.6024 4.35774 21.6788C5.48993 19.7553 7.26689 18.2949 9.37339 17.5569V14.665C9.37339 12.578 10.2024 10.5765 11.6782 9.10071C13.1539 7.62496 15.1555 6.7959 17.2425 6.7959C19.3295 6.7959 21.3311 7.62496 22.8068 9.10071C24.2825 10.5765 25.1116 12.578 25.1116 14.665V36.6985" stroke="#0152A8" stroke-width="2" stroke-linecap="round" stroke-linejoin="round"/>
<path d="M36.1281 35.9116H37.7019C39.9339 35.9176 42.0959 35.1327 43.8043 33.6963C45.5127 32.2599 46.6571 30.2647 47.0343 28.0648C47.4116 25.8649 46.9974 23.6024 45.8652 21.6788C44.733 19.7553 42.956 18.2949 40.8495 17.5569V14.665C40.8495 12.578 40.0205 10.5765 38.5447 9.10071C37.069 7.62496 35.0675 6.7959 32.9804 6.7959C30.8934 6.7959 28.8919 7.62496 27.4161 9.10071C25.9404 10.5765 25.1113 12.578 25.1113 14.665" stroke="#0152A8" stroke-width="2" stroke-linecap="round" stroke-linejoin="round"/>
<path d="M17.2428 17.0261V18.5999C17.2428 20.0609 16.6624 21.4619 15.6294 22.495C14.5964 23.528 13.1953 24.1083 11.7344 24.1083" stroke="#0152A8" stroke-width="2" stroke-linecap="round" stroke-linejoin="round"/>
<path d="M32.9814 17.0264V18.6002C32.9814 20.0611 33.5618 21.4622 34.5948 22.4952C35.6278 23.5282 37.0289 24.1086 38.4898 24.1086" stroke="#0152A8" stroke-width="2" stroke-linecap="round" stroke-linejoin="round"/>
</svg>
