<svg width="26" height="25" viewBox="0 0 26 25" fill="none" xmlns="http://www.w3.org/2000/svg">
<path d="M19.8295 17.251V6.68375C19.8308 6.38603 19.7731 6.09102 19.6597 5.81572C19.5463 5.54042 19.3796 5.2903 19.1691 5.07978C18.9586 4.86926 18.7084 4.70251 18.4331 4.58916C18.1578 4.4758 17.8628 4.41808 17.5651 4.41933H4.7334" stroke="#0152A8" stroke-linecap="round" stroke-linejoin="round"/>
<path d="M10.7715 10.4578H16.8099" stroke="#0152A8" stroke-linecap="round" stroke-linejoin="round"/>
<path d="M10.7715 13.4768H16.8099" stroke="#0152A8" stroke-linecap="round" stroke-linejoin="round"/>
<path d="M3.04429 8.19336C2.79986 7.91968 2.6256 7.59071 2.53651 7.23476C2.44742 6.8788 2.44616 6.50653 2.53285 6.14998C2.61954 5.79343 2.79158 5.46329 3.03415 5.18798C3.27673 4.91266 3.58258 4.70042 3.92537 4.56952C4.26816 4.43862 4.63763 4.39299 5.00197 4.43654C5.36631 4.4801 5.71461 4.61154 6.01688 4.81956C6.31916 5.02758 6.56635 5.30594 6.73719 5.63068C6.90803 5.95542 6.99739 6.31681 6.99759 6.68374V18.7606C6.99778 19.1276 7.08715 19.489 7.25799 19.8137C7.42883 20.1384 7.67602 20.4168 7.9783 20.6248C8.28057 20.8328 8.62887 20.9643 8.99321 21.0078C9.35755 21.0514 9.72702 21.0058 10.0698 20.8749C10.4126 20.744 10.7185 20.5317 10.961 20.2564C11.2036 19.9811 11.3756 19.651 11.4623 19.2944C11.549 18.9379 11.5478 18.5656 11.4587 18.2096C11.3696 17.8537 11.1953 17.5247 10.9509 17.251H21.5182C21.8097 17.5769 22.0006 17.9802 22.0678 18.4122C22.1351 18.8442 22.0759 19.2865 21.8973 19.6856C21.7187 20.0847 21.4284 20.4235 21.0614 20.6612C20.6945 20.8989 20.2665 21.0253 19.8293 21.0251H9.26201" stroke="#0152A8" stroke-linecap="round" stroke-linejoin="round"/>
</svg>
