<svg width="54" height="55" viewBox="0 0 54 55" fill="none" xmlns="http://www.w3.org/2000/svg">
<path d="M29.2703 12.625L10.4818 32.0196C10.3283 32.1788 10.2067 32.3677 10.1241 32.5755C10.0414 32.7832 9.99925 33.0058 10 33.2304V44.625H21.0385C21.2561 44.6258 21.4717 44.5823 21.673 44.4969C21.8743 44.4116 22.0573 44.2861 22.2115 44.1277L41 24.7331" fill="#0FE3AF"/>
<path d="M29.2703 12.625L10.4818 32.0196C10.3283 32.1788 10.2067 32.3677 10.1241 32.5755C10.0414 32.7832 9.99925 33.0058 10 33.2304V44.625H21.0385C21.2561 44.6258 21.4717 44.5823 21.673 44.4969C21.8743 44.4116 22.0573 44.2861 22.2115 44.1277L41 24.7331" stroke="#0152A8" stroke-width="2" stroke-linecap="round" stroke-linejoin="round"/>
<path d="M39 5.625L49 15.625" stroke="#0152A8" stroke-width="2" stroke-linecap="round" stroke-linejoin="round"/>
<path d="M27 11L44 28" stroke="#0152A8" stroke-width="2" stroke-linecap="round" stroke-linejoin="round"/>
<path d="M21 21.625L27 26.625" stroke="#0152A8" stroke-width="2" stroke-linecap="round" stroke-linejoin="round"/>
<path d="M15 27.625L21 32.625" stroke="#0152A8" stroke-width="2" stroke-linecap="round" stroke-linejoin="round"/>
<path d="M35 18.625L44 10.625" stroke="#0152A8" stroke-width="2" stroke-linecap="round" stroke-linejoin="round"/>
<path d="M9.82761 44.7131L4.69727 49.8435" stroke="#0152A8" stroke-width="2" stroke-linecap="round" stroke-linejoin="round"/>
</svg>
