<svg width="25" height="24" viewBox="0 0 25 24" fill="none" xmlns="http://www.w3.org/2000/svg">
<path d="M11.222 1.325C11.5214 0.403687 12.8248 0.403689 13.1242 1.325L15.2826 7.96797C15.4165 8.37999 15.8004 8.65895 16.2336 8.65895L23.2185 8.65895C24.1872 8.65895 24.59 9.89856 23.8063 10.468L18.1554 14.5735C17.8049 14.8282 17.6583 15.2796 17.7921 15.6916L19.9506 22.3345C20.2499 23.2559 19.1954 24.022 18.4117 23.4526L12.7609 19.347C12.4104 19.0924 11.9358 19.0924 11.5853 19.347L5.93447 23.4526C5.15075 24.022 4.09628 23.2559 4.39563 22.3345L6.55406 15.6916C6.68793 15.2796 6.54128 14.8282 6.19079 14.5735L0.539942 10.468C-0.243772 9.89856 0.159005 8.65895 1.12773 8.65895L8.11256 8.65895C8.54578 8.65895 8.92974 8.37999 9.06361 7.96797L11.222 1.325Z" fill="#FBB837"/>
</svg>
