<svg width="20" height="21" viewBox="0 0 20 21" fill="none" xmlns="http://www.w3.org/2000/svg">
<path d="M18.5603 8.27191C18.2243 7.92706 17.8795 7.56451 17.7468 7.25503C17.6142 6.94554 17.623 6.48573 17.6142 6.01708C17.6054 5.15936 17.5877 4.17785 16.9068 3.49698C16.2259 2.81611 15.2444 2.79842 14.3867 2.78958C13.918 2.78074 13.4406 2.7719 13.1488 2.65694C12.8569 2.54199 12.4767 2.17945 12.1319 1.84344C11.5217 1.25983 10.8232 0.596649 9.90356 0.596649C8.98395 0.596649 8.28539 1.25983 7.67526 1.84344C7.33041 2.17945 6.96787 2.52431 6.65838 2.65694C6.34889 2.78958 5.88908 2.78074 5.42043 2.78958C4.56271 2.79842 3.5812 2.81611 2.90033 3.49698C2.21946 4.17785 2.20177 5.15936 2.19293 6.01708C2.18409 6.48573 2.17525 6.96323 2.0603 7.25503C1.94534 7.54683 1.5828 7.92706 1.24679 8.27191C0.663185 8.88204 0 9.5806 0 10.5002C0 11.4198 0.663185 12.1184 1.24679 12.7285C1.5828 13.0734 1.92766 13.4359 2.0603 13.7454C2.19293 14.0549 2.18409 14.5147 2.19293 14.9833C2.20177 15.8411 2.21946 16.8226 2.90033 17.5034C3.5812 18.1843 4.56271 18.202 5.42043 18.2108C5.88908 18.2197 6.36658 18.2285 6.65838 18.3435C6.95018 18.4584 7.33041 18.821 7.67526 19.157C8.28539 19.7406 8.98395 20.4038 9.90356 20.4038C10.8232 20.4038 11.5217 19.7406 12.1319 19.157C12.4767 18.821 12.8393 18.4761 13.1488 18.3435C13.4582 18.2108 13.918 18.2197 14.3867 18.2108C15.2444 18.202 16.2259 18.1843 16.9068 17.5034C17.5877 16.8226 17.6054 15.8411 17.6142 14.9833C17.623 14.5147 17.6319 14.0372 17.7468 13.7454C17.8618 13.4536 18.2243 13.0734 18.5603 12.7285C19.1439 12.1184 19.8071 11.4198 19.8071 10.5002C19.8071 9.5806 19.1439 8.88204 18.5603 8.27191ZM14.2806 8.89088L9.0989 13.8427C8.96494 13.9687 8.78764 14.0383 8.60372 14.0372C8.42251 14.0379 8.24813 13.9681 8.11739 13.8427L5.52654 11.3668C5.45468 11.3041 5.39624 11.2275 5.35473 11.1416C5.31322 11.0558 5.2895 10.9624 5.28499 10.8672C5.28048 10.7719 5.29528 10.6767 5.3285 10.5873C5.36172 10.4979 5.41267 10.4162 5.47829 10.347C5.54391 10.2778 5.62285 10.2226 5.71035 10.1846C5.79786 10.1467 5.89213 10.1269 5.98749 10.1263C6.08285 10.1258 6.17735 10.1445 6.26528 10.1814C6.35322 10.2183 6.43279 10.2726 6.49921 10.341L8.60372 12.3483L13.3079 7.86516C13.4455 7.74516 13.6241 7.68297 13.8064 7.69159C13.9887 7.70022 14.1607 7.77899 14.2863 7.91145C14.4119 8.0439 14.4814 8.21978 14.4804 8.40231C14.4793 8.58484 14.4077 8.7599 14.2806 8.89088Z" fill="#0FE3AF"/>
</svg>
